#tb 0: 1/25
0,          0,          0,        1,   152064, 0x502ec077
0,          1,          1,        1,   152064, 0x84807243
0,          2,          2,        1,   152064, 0xd7474a6e
0,          3,          3,        1,   152064, 0x793469bb
0,          4,          4,        1,   152064, 0xb7a0faf7
0,          5,          5,        1,   152064, 0x1d3d3cba
0,          6,          6,        1,   152064, 0xb62583de
0,          7,          7,        1,   152064, 0xc8422fb1
0,          8,          8,        1,   152064, 0x321dc699
0,          9,          9,        1,   152064, 0x7a34d350
0,         10,         10,        1,   152064, 0xaa4c302d
0,         11,         11,        1,   152064, 0x45fa7ab0
0,         12,         12,        1,   152064, 0xc7262e41
0,         13,         13,        1,   152064, 0x3550000c
0,         14,         14,        1,   152064, 0xf4bab54b
0,         15,         15,        1,   152064, 0xaccf9c1a
0,         16,         16,        1,   152064, 0x9bee20e9
0,         17,         17,        1,   152064, 0x47fb7720
0,         18,         18,        1,   152064, 0x12c63ffb
0,         19,         19,        1,   152064, 0xfa2b8b4d
0,         20,         20,        1,   152064, 0x279964bd
0,         21,         21,        1,   152064, 0xb8b01c7e
0,         22,         22,        1,   152064, 0x816fa010
0,         23,         23,        1,   152064, 0x59fe1c8c
0,         24,         24,        1,   152064, 0x13393fad
0,         25,         25,        1,   152064, 0x991a50a4
0,         26,         26,        1,   152064, 0x57df3eb7
0,         27,         27,        1,   152064, 0x744371df
0,         28,         28,        1,   152064, 0xe9f6d3ff
0,         29,         29,        1,   152064, 0xc506fba0
0,         30,         30,        1,   152064, 0x6295b90e
0,         31,         31,        1,   152064, 0xa19cee2d
0,         32,         32,        1,   152064, 0xf8c1b3ca
0,         33,         33,        1,   152064, 0x69f68ce0
0,         34,         34,        1,   152064, 0x80558bb6
0,         35,         35,        1,   152064, 0x27824fa5
0,         36,         36,        1,   152064, 0x27c929a1
0,         37,         37,        1,   152064, 0xc0fe06d1
0,         38,         38,        1,   152064, 0xc52bc58c
0,         39,         39,        1,   152064, 0x0a5363c7
0,         40,         40,        1,   152064, 0xd0f45a0d
0,         41,         41,        1,   152064, 0x274710f9
0,         42,         42,        1,   152064, 0x89d2d390
0,         43,         43,        1,   152064, 0x12a9bfb0
0,         44,         44,        1,   152064, 0x04501a93
0,         45,         45,        1,   152064, 0xf92cbbf4
0,         46,         46,        1,   152064, 0xf6d1b27d
0,         47,         47,        1,   152064, 0xe3e904c3
0,         48,         48,        1,   152064, 0x58f8516d
0,         49,         49,        1,   152064, 0x70370c2b
0,         50,         50,        1,   152064, 0xfeebc88c
0,         51,         51,        1,   152064, 0x974c6ed6
0,         52,         52,        1,   152064, 0x401bdcf2
0,         53,         53,        1,   152064, 0xfe61e278
0,         54,         54,        1,   152064, 0x96ba8bb9
0,         55,         55,        1,   152064, 0x988492fd
0,         56,         56,        1,   152064, 0xd1d913a9
0,         57,         57,        1,   152064, 0x6bc46f0e
0,         58,         58,        1,   152064, 0x695ef706
0,         59,         59,        1,   152064, 0x142045c9
0,         60,         60,        1,   152064, 0xb390ed87
0,         61,         61,        1,   152064, 0xb9e6d2e5
0,         62,         62,        1,   152064, 0xe348797f
0,         63,         63,        1,   152064, 0x1cbd29d6
0,         64,         64,        1,   152064, 0xbd7dd694
0,         65,         65,        1,   152064, 0x516873c3
0,         66,         66,        1,   152064, 0x27bba182
0,         67,         67,        1,   152064, 0x7541f920
0,         68,         68,        1,   152064, 0xfdf67042
0,         69,         69,        1,   152064, 0x6c3c7896
0,         70,         70,        1,   152064, 0xed86c467
0,         71,         71,        1,   152064, 0x4ea83ca2
0,         72,         72,        1,   152064, 0xa3e6725b
0,         73,         73,        1,   152064, 0x917f5f16
0,         74,         74,        1,   152064, 0x8cf2d2e1
0,         75,         75,        1,   152064, 0x57a8d116
0,         76,         76,        1,   152064, 0x0db267d4
0,         77,         77,        1,   152064, 0xce782ac5
0,         78,         78,        1,   152064, 0x1c9d8518
0,         79,         79,        1,   152064, 0x47598ac7
0,         80,         80,        1,   152064, 0xc5033d97
0,         81,         81,        1,   152064, 0xd7aaa3a4
0,         82,         82,        1,   152064, 0x078afc96
0,         83,         83,        1,   152064, 0xc9fe673d
0,         84,         84,        1,   152064, 0xe9284066
0,         85,         85,        1,   152064, 0xbc570982
0,         86,         86,        1,   152064, 0x0aac8574
0,         87,         87,        1,   152064, 0x098cbeee
0,         88,         88,        1,   152064, 0x19c36a9d
0,         89,         89,        1,   152064, 0x8fe4a893
0,         90,         90,        1,   152064, 0x0b652f17
0,         91,         91,        1,   152064, 0x10f2e6bf
0,         92,         92,        1,   152064, 0x7ce5634e
0,         93,         93,        1,   152064, 0x8fe4ac6c
0,         94,         94,        1,   152064, 0xcaba749e
0,         95,         95,        1,   152064, 0x5f8a0d5c
0,         96,         96,        1,   152064, 0xcaa66bbc
0,         97,         97,        1,   152064, 0xc87ae617
0,         98,         98,        1,   152064, 0xe8ef4dd7
0,         99,         99,        1,   152064, 0xdfca5a07
0,        100,        100,        1,   152064, 0x5f7eab7d
0,        101,        101,        1,   152064, 0x8a65ebbb
0,        102,        102,        1,   152064, 0x4beab4a0
0,        103,        103,        1,   152064, 0xb5e6ab30
0,        104,        104,        1,   152064, 0x8fe4f4d4
0,        105,        105,        1,   152064, 0x95bde1ca
0,        106,        106,        1,   152064, 0xcc5e3a53
0,        107,        107,        1,   152064, 0xf09f1dd7
0,        108,        108,        1,   152064, 0x10179672
0,        109,        109,        1,   152064, 0x4ad16184
0,        110,        110,        1,   152064, 0x9efa0e23
0,        111,        111,        1,   152064, 0x22f59522
0,        112,        112,        1,   152064, 0x4d38f09d
0,        113,        113,        1,   152064, 0x4c5ebf56
0,        114,        114,        1,   152064, 0xb19d5077
0,        115,        115,        1,   152064, 0xa98576b9
0,        116,        116,        1,   152064, 0x65324239
0,        117,        117,        1,   152064, 0x709e4031
0,        118,        118,        1,   152064, 0xf8e81681
0,        119,        119,        1,   152064, 0x058514e5
0,        120,        120,        1,   152064, 0xd1d1c806
0,        121,        121,        1,   152064, 0x0e4dde57
0,        122,        122,        1,   152064, 0x49e9c2bb
0,        123,        123,        1,   152064, 0x01417ce6
0,        124,        124,        1,   152064, 0xda7ebbf1
0,        125,        125,        1,   152064, 0xa22906b7
0,        126,        126,        1,   152064, 0x32e2df87
0,        127,        127,        1,   152064, 0x69917c8f
0,        128,        128,        1,   152064, 0xea8ed2cc
0,        129,        129,        1,   152064, 0x0b8d57f1
0,        130,        130,        1,   152064, 0x5f683bcd
0,        131,        131,        1,   152064, 0x5162fe2f
0,        132,        132,        1,   152064, 0x49c052f8
0,        133,        133,        1,   152064, 0x990b69ba
0,        134,        134,        1,   152064, 0xa6d4f99f
0,        135,        135,        1,   152064, 0xe79ef4da
0,        136,        136,        1,   152064, 0x5e8a3847
0,        137,        137,        1,   152064, 0x38b1e75f
0,        138,        138,        1,   152064, 0xf5c91bed
0,        139,        139,        1,   152064, 0xd59a6d26
0,        140,        140,        1,   152064, 0xc361de06
0,        141,        141,        1,   152064, 0x63ed2229
0,        142,        142,        1,   152064, 0xb8229205
0,        143,        143,        1,   152064, 0x7c6619af
0,        144,        144,        1,   152064, 0x4126b02f
0,        145,        145,        1,   152064, 0x9250b99b
0,        146,        146,        1,   152064, 0x589778f9
0,        147,        147,        1,   152064, 0xed1fa45b
0,        148,        148,        1,   152064, 0x700b6f32
0,        149,        149,        1,   152064, 0x0590df55
0,        150,        150,        1,   152064, 0x3e9c4018
0,        151,        151,        1,   152064, 0x957b8860
0,        152,        152,        1,   152064, 0x56161560
0,        153,        153,        1,   152064, 0xbc43bc3b
0,        154,        154,        1,   152064, 0x508d8632
0,        155,        155,        1,   152064, 0xbc5736d8
0,        156,        156,        1,   152064, 0xed7d3aef
0,        157,        157,        1,   152064, 0x1dcdda9f
0,        158,        158,        1,   152064, 0x8ef6d5c9
0,        159,        159,        1,   152064, 0x15466acc
0,        160,        160,        1,   152064, 0x45d4cf67
0,        161,        161,        1,   152064, 0x8c900b9d
0,        162,        162,        1,   152064, 0x747006e0
0,        163,        163,        1,   152064, 0xac920a0c
0,        164,        164,        1,   152064, 0xb8210c27
0,        165,        165,        1,   152064, 0x7dbb873a
0,        166,        166,        1,   152064, 0x0d4d7584
0,        167,        167,        1,   152064, 0xefb3fe60
0,        168,        168,        1,   152064, 0x905e2644
0,        169,        169,        1,   152064, 0x7c04e534
0,        170,        170,        1,   152064, 0x8889972a
0,        171,        171,        1,   152064, 0x21c7d8ad
0,        172,        172,        1,   152064, 0x1c641176
0,        173,        173,        1,   152064, 0xf71489a4
0,        174,        174,        1,   152064, 0xd7ac5555
0,        175,        175,        1,   152064, 0xb4609c6d
0,        176,        176,        1,   152064, 0xf5b2bd5e
0,        177,        177,        1,   152064, 0x9f43ce57
0,        178,        178,        1,   152064, 0x77642dd3
0,        179,        179,        1,   152064, 0x3e79565c
0,        180,        180,        1,   152064, 0x95f40b8e
0,        181,        181,        1,   152064, 0x3c8ca4d4
0,        182,        182,        1,   152064, 0xa02ac497
0,        183,        183,        1,   152064, 0x4c93b377
0,        184,        184,        1,   152064, 0x55f5ac68
0,        185,        185,        1,   152064, 0xf8652eca
0,        186,        186,        1,   152064, 0x56e94574
0,        187,        187,        1,   152064, 0x6d8302e1
0,        188,        188,        1,   152064, 0x29a57061
0,        189,        189,        1,   152064, 0x24e4cfdc
0,        190,        190,        1,   152064, 0xf5a5d62a
0,        191,        191,        1,   152064, 0x998870c1
0,        192,        192,        1,   152064, 0xa15b1f4e
0,        193,        193,        1,   152064, 0xb0ccb51f
0,        194,        194,        1,   152064, 0xeaaf59ab
0,        195,        195,        1,   152064, 0x7e2b4fe6
0,        196,        196,        1,   152064, 0x72299fea
0,        197,        197,        1,   152064, 0x769da8b2
0,        198,        198,        1,   152064, 0xefad7ef8
0,        199,        199,        1,   152064, 0x24819983
0,        200,        200,        1,   152064, 0x2aad32ab
0,        201,        201,        1,   152064, 0xc80cac79
0,        202,        202,        1,   152064, 0x1659d628
0,        203,        203,        1,   152064, 0xef941f66
0,        204,        204,        1,   152064, 0x0d7fcdb5
0,        205,        205,        1,   152064, 0x7c1853fa
0,        206,        206,        1,   152064, 0xb94c4d3c
0,        207,        207,        1,   152064, 0xc47adfc2
0,        208,        208,        1,   152064, 0x366a6729
0,        209,        209,        1,   152064, 0x7eb37b70
0,        210,        210,        1,   152064, 0xafd54c27
0,        211,        211,        1,   152064, 0x67b18636
0,        212,        212,        1,   152064, 0x93b22dcf
0,        213,        213,        1,   152064, 0xa64991f1
0,        214,        214,        1,   152064, 0xd32a7102
0,        215,        215,        1,   152064, 0xff665d1c
0,        216,        216,        1,   152064, 0xf107cc31
0,        217,        217,        1,   152064, 0xf5b25652
0,        218,        218,        1,   152064, 0x8caf783d
0,        219,        219,        1,   152064, 0x72f3eb00
0,        220,        220,        1,   152064, 0xb5aea5f8
0,        221,        221,        1,   152064, 0xee70e870
0,        222,        222,        1,   152064, 0x7c3a0156
0,        223,        223,        1,   152064, 0x871b6383
0,        224,        224,        1,   152064, 0x48d831ff
0,        225,        225,        1,   152064, 0xca233913
0,        226,        226,        1,   152064, 0xe14bc5eb
0,        227,        227,        1,   152064, 0x9b1d27e7
0,        228,        228,        1,   152064, 0xfb9637f7
0,        229,        229,        1,   152064, 0x0c022157
0,        230,        230,        1,   152064, 0x16d35fc9
0,        231,        231,        1,   152064, 0x6d935f71
0,        232,        232,        1,   152064, 0xae4066fa
0,        233,        233,        1,   152064, 0xcef94fdc
0,        234,        234,        1,   152064, 0xc234edb9
0,        235,        235,        1,   152064, 0x26a4f2e2
0,        236,        236,        1,   152064, 0xd29ac23e
0,        237,        237,        1,   152064, 0xb7604395
0,        238,        238,        1,   152064, 0x408084f6
0,        239,        239,        1,   152064, 0x0a02026c
0,        240,        240,        1,   152064, 0x78b33c7c
0,        241,        241,        1,   152064, 0xcb02b874
0,        242,        242,        1,   152064, 0xf566513b
0,        243,        243,        1,   152064, 0xb34e52b1
0,        244,        244,        1,   152064, 0xf55ff493
0,        245,        245,        1,   152064, 0xb0e8282a
0,        246,        246,        1,   152064, 0xe9510bbe
0,        247,        247,        1,   152064, 0x292e8c5a
0,        248,        248,        1,   152064, 0x62b9d2b0
0,        249,        249,        1,   152064, 0x3a8cc827
0,        250,        250,        1,   152064, 0x25cc465e
0,        251,        251,        1,   152064, 0xf2bc32e2
0,        252,        252,        1,   152064, 0x6141f914
0,        253,        253,        1,   152064, 0x1171256f
0,        254,        254,        1,   152064, 0x13cb2ded
0,        255,        255,        1,   152064, 0x3d4ca557
0,        256,        256,        1,   152064, 0xf2b9e72e
0,        257,        257,        1,   152064, 0x03f7547a
0,        258,        258,        1,   152064, 0xc7302955
0,        259,        259,        1,   152064, 0xe78a46d3
0,        260,        260,        1,   152064, 0x3726a270
0,        261,        261,        1,   152064, 0x2f65722a
0,        262,        262,        1,   152064, 0x55acce40
0,        263,        263,        1,   152064, 0xf6fa9db2
0,        264,        264,        1,   152064, 0x70a36937
0,        265,        265,        1,   152064, 0x9313742d
0,        266,        266,        1,   152064, 0x2eb14e53
0,        267,        267,        1,   152064, 0x3d47c9c3
0,        268,        268,        1,   152064, 0xd0a90348
0,        269,        269,        1,   152064, 0x6ad48088
0,        270,        270,        1,   152064, 0x68e64738
0,        271,        271,        1,   152064, 0x04c3735a
0,        272,        272,        1,   152064, 0x51d0593f
0,        273,        273,        1,   152064, 0x42cf2b48
0,        274,        274,        1,   152064, 0xa5496a0c
0,        275,        275,        1,   152064, 0x84c25549
0,        276,        276,        1,   152064, 0x96691600
0,        277,        277,        1,   152064, 0x423135db
0,        278,        278,        1,   152064, 0x8d2e08b6
0,        279,        279,        1,   152064, 0xaeb4c840
0,        280,        280,        1,   152064, 0xf3e71780
0,        281,        281,        1,   152064, 0x8858228b
0,        282,        282,        1,   152064, 0xf28613f8
0,        283,        283,        1,   152064, 0xb5327882
0,        284,        284,        1,   152064, 0xbb60bb85
0,        285,        285,        1,   152064, 0x345ab1c9
0,        286,        286,        1,   152064, 0x8aac2cba
0,        287,        287,        1,   152064, 0x7ce15b4c
0,        288,        288,        1,   152064, 0xc09c55c0
0,        289,        289,        1,   152064, 0x8482ddd6
0,        290,        290,        1,   152064, 0xab222a13
0,        291,        291,        1,   152064, 0xd39b0dea
0,        292,        292,        1,   152064, 0x6dab6e06
0,        293,        293,        1,   152064, 0xec0891bd
0,        294,        294,        1,   152064, 0x88bd9701
0,        295,        295,        1,   152064, 0xdf13072a
0,        296,        296,        1,   152064, 0x23b33081
0,        297,        297,        1,   152064, 0x63943137
0,        298,        298,        1,   152064, 0xab6a9052
0,        299,        299,        1,   152064, 0x05485494
